<svg width="24" height="24" viewBox="0 0 24 24" fill="none" xmlns="http://www.w3.org/2000/svg">
<rect x="1" y="1" width="22" height="22" rx="11" stroke="#191C1D" stroke-width="2"/>
<path d="M9.25406 16.5V9.05H12.3991C12.8891 9.05 13.3103 9.13458 13.6628 9.30375C14.0153 9.47292 14.2853 9.71375 14.4728 10.0263C14.6603 10.3388 14.7541 10.7142 14.7541 11.1525C14.7541 11.4942 14.6628 11.8133 14.4803 12.11C14.2978 12.4067 14.0074 12.6492 13.6091 12.8375L13.6066 12.2075C13.9749 12.3492 14.2653 12.5242 14.4778 12.7325C14.6903 12.9408 14.8407 13.1708 14.9291 13.4225C15.0174 13.6742 15.0616 13.9392 15.0616 14.2175C15.0616 14.9342 14.8261 15.4937 14.3553 15.8962C13.8845 16.2987 13.2332 16.5 12.4016 16.5H9.25406ZM10.6166 15.3H12.5366C12.8899 15.3 13.172 15.2013 13.3828 15.0037C13.5936 14.8062 13.6991 14.545 13.6991 14.22C13.6991 13.8917 13.5936 13.6279 13.3828 13.4287C13.172 13.2296 12.8899 13.13 12.5366 13.13H10.6166V15.3ZM10.6166 11.9375H12.4666C12.7466 11.9375 12.9707 11.8571 13.1391 11.6963C13.3074 11.5354 13.3916 11.3242 13.3916 11.0625C13.3916 10.7992 13.3074 10.5917 13.1391 10.44C12.9707 10.2883 12.7466 10.2125 12.4666 10.2125H10.6166V11.9375Z" fill="#191C1D"/>
</svg>
