<svg width="32" height="32" viewBox="0 0 32 32" fill="none" xmlns="http://www.w3.org/2000/svg">
<path d="M27.4633 17.5472C27.53 17.0477 27.5633 16.5316 27.5633 15.9822C27.5633 15.4495 27.53 14.9168 27.4467 14.4173L30.83 11.7869C31.13 11.5538 31.2133 11.1043 31.03 10.7714L27.83 5.24417C27.63 4.87791 27.2133 4.76138 26.8467 4.87791L22.8633 6.47614C22.03 5.84351 21.1467 5.31077 20.1633 4.91121L19.5633 0.682575C19.4967 0.283019 19.1633 0 18.7633 0H12.3633C11.9633 0 11.6467 0.283019 11.58 0.682575L10.98 4.91121C9.99667 5.31077 9.09667 5.86015 8.28 6.47614L4.29667 4.87791C3.93 4.74473 3.51333 4.87791 3.31333 5.24417L0.130001 10.7714C-0.0699994 11.121 -0.00333294 11.5538 0.33 11.7869L3.71333 14.4173C3.63 14.9168 3.56333 15.4661 3.56333 15.9822C3.56333 16.4983 3.59667 17.0477 3.68 17.5472L0.296667 20.1776C-0.00333292 20.4107 -0.0866661 20.8602 0.0966673 21.1931L3.29667 26.7203C3.49667 27.0866 3.91333 27.2031 4.28 27.0866L8.26333 25.4883C9.09667 26.121 9.98 26.6537 10.9633 27.0533L11.5633 31.2819C11.6467 31.6815 11.9633 31.9645 12.3633 31.9645H18.7633C19.1633 31.9645 19.4967 31.6815 19.5467 31.2819L20.1467 27.0533C21.13 26.6537 22.03 26.121 22.8467 25.4883L26.83 27.0866C27.1967 27.2198 27.6133 27.0866 27.8133 26.7203L31.0133 21.1931C31.2133 20.8269 31.13 20.4107 30.8133 20.1776L27.4633 17.5472ZM15.5633 21.9756C12.2633 21.9756 9.56333 19.2786 9.56333 15.9822C9.56333 12.6859 12.2633 9.9889 15.5633 9.9889C18.8633 9.9889 21.5633 12.6859 21.5633 15.9822C21.5633 19.2786 18.8633 21.9756 15.5633 21.9756Z" fill="#FAFAFA"/>
</svg>
