<svg width="32" height="32" viewBox="0 0 32 32" fill="none" xmlns="http://www.w3.org/2000/svg">
<rect width="32" height="32" rx="16" fill="#F1F5F9"/>
<path d="M15.9987 15.9998C16.457 15.9998 16.8494 15.8366 17.1758 15.5103C17.5022 15.1839 17.6654 14.7915 17.6654 14.3332C17.6654 13.8748 17.5022 13.4825 17.1758 13.1561C16.8494 12.8297 16.457 12.6665 15.9987 12.6665C15.5404 12.6665 15.148 12.8297 14.8216 13.1561C14.4952 13.4825 14.332 13.8748 14.332 14.3332C14.332 14.7915 14.4952 15.1839 14.8216 15.5103C15.148 15.8366 15.5404 15.9998 15.9987 15.9998V15.9998M15.9987 22.1248C17.6931 20.5693 18.9501 19.1561 19.7695 17.8853C20.589 16.6144 20.9987 15.4859 20.9987 14.4998C20.9987 12.9859 20.5161 11.7464 19.5508 10.7811C18.5855 9.81581 17.4015 9.33317 15.9987 9.33317C14.5959 9.33317 13.4119 9.81581 12.4466 10.7811C11.4813 11.7464 10.9987 12.9859 10.9987 14.4998C10.9987 15.4859 11.4084 16.6144 12.2279 17.8853C13.0473 19.1561 14.3043 20.5693 15.9987 22.1248V22.1248M15.9987 24.3332C13.7626 22.4304 12.0924 20.663 10.9883 19.0311C9.88411 17.3991 9.33203 15.8887 9.33203 14.4998C9.33203 12.4165 10.0022 10.7568 11.3424 9.52067C12.6827 8.28456 14.2348 7.6665 15.9987 7.6665C17.7626 7.6665 19.3147 8.28456 20.6549 9.52067C21.9952 10.7568 22.6654 12.4165 22.6654 14.4998C22.6654 15.8887 22.1133 17.3991 21.0091 19.0311C19.9049 20.663 18.2348 22.4304 15.9987 24.3332V24.3332M15.9987 14.3332V14.3332V14.3332V14.3332V14.3332V14.3332V14.3332V14.3332V14.3332V14.3332" fill="#64748B"/>
</svg>
