<svg width="31" height="31" viewBox="0 0 31 31" fill="none" xmlns="http://www.w3.org/2000/svg">
<g opacity="0.5" filter="url(#filter0_d_410_124)">
<path d="M19.7888 14.6916C21.0708 13.138 21.8805 11.1454 21.8805 8.95007C21.8805 4.01909 17.8658 0 12.9402 0C8.01467 0 4 4.01909 4 8.95007C4 13.8811 8.01467 17.9001 12.9402 17.9001C15.0994 17.9001 17.1236 17.1234 18.6755 15.8062L25.6252 22.7636C25.7939 22.9325 25.9963 23 26.1988 23C26.4012 23 26.6036 22.9325 26.7723 22.7636C27.0759 22.4596 27.0759 21.9192 26.7723 21.6153L19.7888 14.6916ZM12.9065 16.279C8.85809 16.279 5.58563 13.0029 5.58563 8.95007C5.58563 4.89721 8.85809 1.62115 12.9065 1.62115C16.9549 1.62115 20.2274 4.89721 20.2274 8.95007C20.2274 13.0029 16.9549 16.279 12.9065 16.279Z" fill="#1B2D45"/>
</g>
<defs>
<filter id="filter0_d_410_124" x="0" y="0" width="31" height="31" filterUnits="userSpaceOnUse" color-interpolation-filters="sRGB">
<feFlood flood-opacity="0" result="BackgroundImageFix"/>
<feColorMatrix in="SourceAlpha" type="matrix" values="0 0 0 0 0 0 0 0 0 0 0 0 0 0 0 0 0 0 127 0" result="hardAlpha"/>
<feOffset dy="4"/>
<feGaussianBlur stdDeviation="2"/>
<feComposite in2="hardAlpha" operator="out"/>
<feColorMatrix type="matrix" values="0 0 0 0 0 0 0 0 0 0 0 0 0 0 0 0 0 0 0.25 0"/>
<feBlend mode="normal" in2="BackgroundImageFix" result="effect1_dropShadow_410_124"/>
<feBlend mode="normal" in="SourceGraphic" in2="effect1_dropShadow_410_124" result="shape"/>
</filter>
</defs>
</svg>
