<svg width="39" height="39" viewBox="0 0 39 39" fill="none" xmlns="http://www.w3.org/2000/svg">
<path d="M11.7384 17.5492C11.3533 17.5492 10.9768 17.6636 10.6566 17.8778C10.3364 18.0921 10.0868 18.3966 9.93939 18.7529C9.79201 19.1092 9.75344 19.5013 9.82858 19.8795C9.90372 20.2578 10.0892 20.6052 10.3615 20.8779C10.6338 21.1506 10.9808 21.3363 11.3585 21.4116C11.7363 21.4868 12.1278 21.4482 12.4836 21.3006C12.8394 21.153 13.1435 20.9031 13.3575 20.5825C13.5715 20.2618 13.6857 19.8848 13.6857 19.4991C13.6857 18.982 13.4805 18.486 13.1153 18.1203C12.7502 17.7547 12.2549 17.5492 11.7384 17.5492ZM19.5274 17.5492C19.1423 17.5492 18.7658 17.6636 18.4456 17.8778C18.1254 18.0921 17.8758 18.3966 17.7284 18.7529C17.581 19.1092 17.5425 19.5013 17.6176 19.8795C17.6927 20.2578 17.8782 20.6052 18.1505 20.8779C18.4229 21.1506 18.7698 21.3363 19.1476 21.4116C19.5253 21.4868 19.9168 21.4482 20.2726 21.3006C20.6284 21.153 20.9326 20.9031 21.1465 20.5825C21.3605 20.2618 21.4747 19.8848 21.4747 19.4991C21.4747 18.982 21.2695 18.486 20.9044 18.1203C20.5392 17.7547 20.0439 17.5492 19.5274 17.5492ZM27.3165 17.5492C26.9313 17.5492 26.5549 17.6636 26.2346 17.8778C25.9144 18.0921 25.6648 18.3966 25.5174 18.7529C25.3701 19.1092 25.3315 19.5013 25.4066 19.8795C25.4818 20.2578 25.6672 20.6052 25.9395 20.8779C26.2119 21.1506 26.5588 21.3363 26.9366 21.4116C27.3143 21.4868 27.7058 21.4482 28.0616 21.3006C28.4175 21.153 28.7216 20.9031 28.9356 20.5825C29.1495 20.2618 29.2637 19.8848 29.2637 19.4991C29.2637 18.982 29.0586 18.486 28.6934 18.1203C28.3282 17.7547 27.8329 17.5492 27.3165 17.5492ZM19.5274 0C16.9703 0 14.4381 0.50436 12.0756 1.48428C9.7131 2.46421 7.56646 3.9005 5.75827 5.71116C2.10645 9.36796 0.0548861 14.3276 0.0548861 19.4991C0.0378628 24.0018 1.59476 28.3684 4.45568 31.8421L0.561173 35.7419C0.290976 36.0161 0.107941 36.3643 0.0351642 36.7426C-0.0376127 37.1208 0.00312904 37.5122 0.152249 37.8673C0.313984 38.2182 0.576174 38.513 0.905538 38.7143C1.2349 38.9157 1.61659 39.0145 2.00214 38.9983H19.5274C24.6919 38.9983 29.6448 36.9439 33.2966 33.2871C36.9484 29.6303 39 24.6706 39 19.4991C39 14.3276 36.9484 9.36796 33.2966 5.71116C29.6448 2.05437 24.6919 0 19.5274 0ZM19.5274 35.0984H6.69503L8.50598 33.285C8.68997 33.1044 8.83634 32.8891 8.93662 32.6514C9.0369 32.4138 9.08908 32.1586 9.09015 31.9006C9.08284 31.3863 8.87287 30.8957 8.50598 30.5356C5.95621 27.9852 4.3684 24.6285 4.01305 21.0372C3.65771 17.446 4.55683 13.8424 6.55721 10.8406C8.5576 7.83873 11.5355 5.62425 14.9836 4.57445C18.4316 3.52464 22.1365 3.70446 25.467 5.08326C28.7975 6.46206 31.5476 8.95454 33.2487 12.1361C34.9498 15.3176 35.4966 18.9913 34.7961 22.5313C34.0956 26.0713 32.191 29.2585 29.4069 31.5501C26.6228 33.8416 23.1314 35.0956 19.5274 35.0984Z" fill="white"/>
</svg>
