<svg width="32" height="32" viewBox="0 0 32 32" fill="none" xmlns="http://www.w3.org/2000/svg">
<rect width="32" height="32" rx="16" fill="#F1F5F9"/>
<path d="M15.1667 25.125V23.4583C13.4306 23.2639 11.941 22.5451 10.6979 21.3021C9.45486 20.059 8.73611 18.5694 8.54167 16.8333H6.875V15.1667H8.54167C8.73611 13.4306 9.45486 11.941 10.6979 10.6979C11.941 9.45486 13.4306 8.73611 15.1667 8.54167V6.875H16.8333V8.54167C18.5694 8.73611 20.059 9.45486 21.3021 10.6979C22.5451 11.941 23.2639 13.4306 23.4583 15.1667H25.125V16.8333H23.4583C23.2639 18.5694 22.5451 20.059 21.3021 21.3021C20.059 22.5451 18.5694 23.2639 16.8333 23.4583V25.125H15.1667V25.125M16 21.8333C17.6111 21.8333 18.9861 21.2639 20.125 20.125C21.2639 18.9861 21.8333 17.6111 21.8333 16C21.8333 14.3889 21.2639 13.0139 20.125 11.875C18.9861 10.7361 17.6111 10.1667 16 10.1667C14.3889 10.1667 13.0139 10.7361 11.875 11.875C10.7361 13.0139 10.1667 14.3889 10.1667 16C10.1667 17.6111 10.7361 18.9861 11.875 20.125C13.0139 21.2639 14.3889 21.8333 16 21.8333V21.8333M16 19.3333C15.0833 19.3333 14.2986 19.0069 13.6458 18.3542C12.9931 17.7014 12.6667 16.9167 12.6667 16C12.6667 15.0833 12.9931 14.2986 13.6458 13.6458C14.2986 12.9931 15.0833 12.6667 16 12.6667C16.9167 12.6667 17.7014 12.9931 18.3542 13.6458C19.0069 14.2986 19.3333 15.0833 19.3333 16C19.3333 16.9167 19.0069 17.7014 18.3542 18.3542C17.7014 19.0069 16.9167 19.3333 16 19.3333V19.3333M16 17.6667C16.4583 17.6667 16.8507 17.5035 17.1771 17.1771C17.5035 16.8507 17.6667 16.4583 17.6667 16C17.6667 15.5417 17.5035 15.1493 17.1771 14.8229C16.8507 14.4965 16.4583 14.3333 16 14.3333C15.5417 14.3333 15.1493 14.4965 14.8229 14.8229C14.4965 15.1493 14.3333 15.5417 14.3333 16C14.3333 16.4583 14.4965 16.8507 14.8229 17.1771C15.1493 17.5035 15.5417 17.6667 16 17.6667V17.6667M16 16V16V16V16V16V16V16V16V16V16" fill="#64748B"/>
</svg>
